<?xml version="1.0" encoding="UTF-8" standalone="no"?>
<!-- Created with Inkscape (http://www.inkscape.org/) -->

<svg
   width="210mm"
   height="72mm"
   viewBox="0 0 210 72"
   version="1.1"
   id="svg5"
   xml:space="preserve"
   sodipodi:docname="recivaper.svg"
   inkscape:version="1.2.1 (9c6d41e410, 2022-07-14)"
   xmlns:inkscape="http://www.inkscape.org/namespaces/inkscape"
   xmlns:sodipodi="http://sodipodi.sourceforge.net/DTD/sodipodi-0.dtd"
   xmlns="http://www.w3.org/2000/svg"
   xmlns:svg="http://www.w3.org/2000/svg"><sodipodi:namedview
     id="namedview7"
     pagecolor="#ffffff"
     bordercolor="#000000"
     borderopacity="0.25"
     inkscape:showpageshadow="2"
     inkscape:pageopacity="0.0"
     inkscape:pagecheckerboard="0"
     inkscape:deskcolor="#d1d1d1"
     inkscape:document-units="mm"
     showgrid="false"
     inkscape:zoom="1"
     inkscape:cx="555.5"
     inkscape:cy="272.5"
     inkscape:window-width="1920"
     inkscape:window-height="1051"
     inkscape:window-x="-9"
     inkscape:window-y="-9"
     inkscape:window-maximized="1"
     inkscape:current-layer="layer2" /><defs
     id="defs2"><inkscape:path-effect
       effect="bspline"
       id="path-effect1521"
       is_visible="true"
       lpeversion="1"
       weight="33.333333"
       steps="2"
       helper_size="0"
       apply_no_weight="true"
       apply_with_weight="true"
       only_selected="false" /><inkscape:path-effect
       effect="bspline"
       id="path-effect1517"
       is_visible="true"
       lpeversion="1"
       weight="33.333333"
       steps="2"
       helper_size="0"
       apply_no_weight="true"
       apply_with_weight="true"
       only_selected="false" /><inkscape:path-effect
       effect="bspline"
       id="path-effect1471"
       is_visible="true"
       lpeversion="1"
       weight="33.333333"
       steps="2"
       helper_size="0"
       apply_no_weight="true"
       apply_with_weight="true"
       only_selected="false" /><inkscape:path-effect
       effect="bspline"
       id="path-effect1406"
       is_visible="true"
       lpeversion="1"
       weight="33.333333"
       steps="2"
       helper_size="0"
       apply_no_weight="true"
       apply_with_weight="true"
       only_selected="false" /><inkscape:path-effect
       effect="bspline"
       id="path-effect1402"
       is_visible="true"
       lpeversion="1"
       weight="33.333333"
       steps="2"
       helper_size="0"
       apply_no_weight="true"
       apply_with_weight="true"
       only_selected="false" /><inkscape:path-effect
       effect="bspline"
       id="path-effect1392"
       is_visible="true"
       lpeversion="1"
       weight="33.333333"
       steps="2"
       helper_size="0"
       apply_no_weight="true"
       apply_with_weight="true"
       only_selected="false" /><inkscape:path-effect
       effect="bspline"
       id="path-effect1388"
       is_visible="true"
       lpeversion="1"
       weight="33.333333"
       steps="2"
       helper_size="0"
       apply_no_weight="true"
       apply_with_weight="true"
       only_selected="false" /><inkscape:path-effect
       effect="bspline"
       id="path-effect499"
       is_visible="true"
       lpeversion="1"
       weight="33.333333"
       steps="2"
       helper_size="0"
       apply_no_weight="true"
       apply_with_weight="true"
       only_selected="false" /><inkscape:path-effect
       effect="simplify"
       id="path-effect244"
       is_visible="true"
       lpeversion="1"
       steps="1"
       threshold="0.000909091"
       smooth_angles="360"
       helper_size="0"
       simplify_individual_paths="false"
       simplify_just_coalesce="false" /><inkscape:path-effect
       effect="bspline"
       id="path-effect1392-9"
       is_visible="true"
       lpeversion="1"
       weight="33.333333"
       steps="2"
       helper_size="0"
       apply_no_weight="true"
       apply_with_weight="true"
       only_selected="false" /><inkscape:path-effect
       effect="bspline"
       id="path-effect1392-3"
       is_visible="true"
       lpeversion="1"
       weight="33.333333"
       steps="2"
       helper_size="0"
       apply_no_weight="true"
       apply_with_weight="true"
       only_selected="false" /></defs><g
     inkscape:groupmode="layer"
     id="layer2"
     inkscape:label="Capa 2"
     style="display:inline"
     transform="translate(0,5.2916666)"><path
       style="fill:#000000;stroke:none;stroke-width:0.264583"
       d="m 139.06525,47.09681 4.13216,0.85074 h 5.46903 v 2.43068 h -5.65133 l -3.91947,0.78997 z"
       id="path377"
       inkscape:label="path377" /><path
       style="display:inline;fill:#c458ee;fill-opacity:1;stroke:none;stroke-width:0.264583"
       d="m 26.368618,34.194211 c 0.673307,-0.01432 2.019662,-0.04295 2.682007,-0.103646 0.662345,-0.06069 0.640855,-0.15382 0.626497,-2.080312 -0.01436,-1.926493 -0.02152,-5.686182 0.0071,-7.634178 0.02862,-1.947995 0.09307,-2.084056 0.23277,-2.23452 0.139699,-0.150465 0.354538,-0.315175 0.555101,-0.433348 0.200563,-0.118173 0.386777,-0.189795 2.023262,-0.225576 1.636485,-0.03578 4.723011,-0.03578 6.284053,-0.103722 1.561041,-0.06794 1.596849,-0.204012 1.596877,-0.834186 2.8e-5,-0.630175 -0.03578,-1.754505 -0.103712,-2.306086 -0.06793,-0.551582 -0.168193,-0.530082 -1.843979,-0.533625 -1.675787,-0.0035 -4.927024,-0.03218 -6.717424,-0.0071 -1.7904,0.02505 -2.119832,0.103825 -2.606872,0.332994 -0.48704,0.22917 -1.131558,0.608718 -1.657987,1.077846 -0.526429,0.469128 -0.934623,1.027709 -1.206766,1.589961 -0.272142,0.562251 -0.408208,1.128001 -0.476219,3.333804 -0.06801,2.205802 -0.06801,6.051432 -0.06801,8.020847 0,1.969415 0,2.062485 0,2.1089 0,0.04641 -7e-6,0.0463 0.673299,0.03198 z"
       id="path1386"
       inkscape:path-effect="#path-effect1388"
       inkscape:original-d="m 25.695312,34.20853 c 1.346618,-0.0284 2.692974,-0.057 4.039063,-0.0859 -0.02122,-0.0928 -0.0427,-0.18593 -0.06445,-0.27929 -0.0069,-3.75958 -0.01405,-7.51927 -0.02148,-11.2793 0.06472,-0.13581 0.12917,-0.27187 0.193358,-0.4082 0.215114,-0.16446 0.429953,-0.32917 0.644532,-0.49414 0.186466,-0.0713 0.372661,-0.14297 0.558594,-0.21485 3.086915,2.7e-4 6.173441,2.7e-4 9.259766,0 0.03607,-0.1358 0.07188,-0.27187 0.107421,-0.4082 -0.03554,-1.12411 -0.07135,-2.24844 -0.107421,-3.37305 -0.1,0.0217 -0.200258,0.0432 -0.300781,0.0645 -3.251105,-0.0284 -6.502342,-0.057 -9.753907,-0.0859 -0.329168,0.079 -0.65859,0.15782 -0.988282,0.23633 -0.644279,0.37983 -1.288796,0.75938 -1.933594,1.13867 -0.407945,0.55887 -0.816141,1.11745 -1.224609,1.67578 -0.135805,0.56603 -0.27187,1.13178 -0.408203,1.69727 2.65e-4,3.84604 2.65e-4,7.69167 0,11.5371 2.65e-4,0.0934 2.65e-4,0.18647 0,0.2793 z" /><path
       style="display:inline;fill:#c458ee;fill-opacity:1;stroke:none;stroke-width:0.264583"
       d="m 53.981474,30.692253 c -1.225336,0.0025 -3.676273,0.0076 -5.06123,-0.07334 -1.384958,-0.08094 -1.703974,-0.248045 -1.967351,-0.475857 -0.263377,-0.227812 -0.470995,-0.516451 -0.569851,-1.164659 -0.09886,-0.648209 -0.08873,-1.655909 -0.07101,-2.797835 0.01772,-1.141926 0.04304,-2.418006 0.136719,-3.149866 0.09368,-0.731859 0.255719,-0.91922 0.460863,-1.083834 0.205143,-0.164613 0.45327,-0.306401 1.987754,-0.374737 1.534484,-0.06834 4.355027,-0.06327 5.821058,-0.03534 1.46603,0.02793 1.57744,0.07857 1.759729,0.202677 0.182288,0.124109 0.43548,0.321599 0.564465,0.582413 0.128986,0.260815 0.134049,0.584895 0.134044,0.858345 -5e-6,0.27345 -0.0051,0.496261 -0.129145,0.74934 -0.124077,0.253079 -0.367138,0.536651 -0.764518,0.678429 -0.39738,0.141777 -0.949335,0.141777 -2.298889,0.134178 -1.349554,-0.0076 -3.496611,-0.0228 -4.608143,-0.03292 -1.111533,-0.01013 -1.187482,-0.01519 -1.215466,0.635658 -0.02798,0.65085 -0.0077,1.95731 0.01764,2.6028 0.02537,0.645489 0.05575,0.630291 0.671111,0.622713 0.615365,-0.0076 1.815489,-0.0076 3.220739,-0.01771 1.405251,-0.01013 3.015544,-0.0304 3.924497,-0.05827 0.908952,-0.02787 1.116561,-0.06332 1.57984,-0.331714 0.463279,-0.268395 1.18234,-0.769715 1.724129,-1.346943 0.54179,-0.577229 0.906385,-1.23046 1.126673,-1.787431 0.220289,-0.556971 0.296247,-1.017781 0.306403,-1.625423 0.01015,-0.607641 -0.04555,-1.362151 -0.164492,-1.947022 -0.118945,-0.584871 -0.30124,-1.000103 -0.62274,-1.433102 -0.3215,-0.432999 -0.782308,-0.883678 -1.324127,-1.24581 -0.541819,-0.362133 -1.164667,-0.635581 -1.671077,-0.797678 -0.50641,-0.162097 -0.896321,-0.212732 -2.552266,-0.23807 -1.655945,-0.02534 -4.577765,-0.02534 -6.238781,0.03541 -1.661016,0.06074 -2.061058,0.182273 -2.52448,0.450677 -0.463422,0.268404 -0.990058,0.683635 -1.415464,1.114109 -0.425405,0.430474 -0.74949,0.876094 -0.967246,1.30153 -0.217756,0.425436 -0.329161,0.830545 -0.387372,2.357383 -0.05821,1.526838 -0.06327,4.175219 -0.02525,5.658972 0.03802,1.483754 0.119041,1.802774 0.281136,2.185106 0.162094,0.382331 0.405155,0.827942 0.792607,1.273534 0.387452,0.445592 0.919154,0.89121 1.483804,1.238037 0.564649,0.346827 1.162176,0.594951 2.825671,0.688564 1.663494,0.09361 4.392888,0.03285 5.757485,-0.03033 1.364597,-0.06318 1.364597,-0.12898 1.35194,-0.648037 -0.01266,-0.519056 -0.03798,-1.491306 -0.06072,-2.012857 -0.02274,-0.52155 -0.04301,-0.592467 -0.05318,-0.628071 -0.01017,-0.03561 -0.01017,-0.03552 -1.235504,-0.03299 z"
       id="path1390"
       inkscape:path-effect="#path-effect1392"
       inkscape:original-d="m 55.206809,30.68972 c -2.450671,0.005 -4.901607,0.0104 -7.352805,0.0152 -0.31877,-0.16685 -0.637788,-0.33395 -0.95708,-0.50133 -0.207362,-0.28838 -0.414978,-0.57702 -0.622863,-0.86593 0.0104,-1.00747 0.02053,-2.01517 0.03038,-3.02316 0.02559,-1.27586 0.0509,-2.55194 0.07596,-3.82832 0.162311,-0.1871 0.324355,-0.37446 0.486135,-0.56209 0.248401,-0.14153 0.496527,-0.28332 0.744394,-0.42537 2.820924,0.005 5.641467,0.0104 8.461804,0.0152 0.111672,0.0509 0.223078,0.10155 0.334219,0.15192 0.253465,0.19776 0.506656,0.39525 0.759587,0.59248 0.0053,0.32436 0.0104,0.64844 0.01519,0.97227 -0.0048,0.22308 -0.0099,0.44589 -0.01519,0.66843 -0.242808,0.28386 -0.485871,0.56743 -0.729203,0.85074 -0.551714,2.7e-4 -1.103669,2.7e-4 -1.655902,0 -2.146877,-0.0149 -4.293934,-0.0301 -6.4413,-0.0456 -0.0757,-0.005 -0.151654,-0.01 -0.227875,-0.0152 0.02053,1.30678 0.04077,2.61324 0.06077,3.91947 0.03065,-0.0149 0.06103,-0.0301 0.09115,-0.0456 1.200438,2.7e-4 2.400562,2.7e-4 3.600444,0 1.610622,-0.02 3.220916,-0.0402 4.830977,-0.0608 0.207889,-0.0352 0.415505,-0.0706 0.622861,-0.10634 0.719355,-0.50108 1.438415,-1.0024 2.157227,-1.50399 0.364874,-0.65299 0.72947,-1.30622 1.093806,-1.95973 0.07622,-0.46056 0.152183,-0.92137 0.227878,-1.38245 -0.05544,-0.75427 -0.111143,-1.50878 -0.167111,-2.26357 -0.182038,-0.41499 -0.364336,-0.83022 -0.546901,-1.24573 -0.460563,-0.45043 -0.92137,-0.90111 -1.382451,-1.35206 -0.62261,-0.27319 -1.245457,-0.54664 -1.868585,-0.82036 -0.389663,-0.0504 -0.779577,-0.10101 -1.169763,-0.15191 -2.921675,2.6e-4 -5.843495,2.6e-4 -8.765638,0 -0.399793,0.1218 -0.799835,0.24333 -1.20015,0.3646 -0.526391,0.41552 -1.053028,0.83075 -1.579941,1.24572 -0.323831,0.4459 -0.647916,0.89152 -0.972272,1.33688 -0.111143,0.40538 -0.222546,0.81049 -0.334219,1.21534 -0.0048,2.64874 -0.0099,5.29712 -0.01519,7.94528 0.08129,0.3193 0.162309,0.63832 0.243067,0.95708 0.243338,0.4459 0.4864,0.89151 0.729203,1.33687 0.531987,0.4459 1.063688,0.89152 1.595136,1.33688 0.597818,0.2484 1.195347,0.49652 1.792626,0.74439 2.729769,-0.0605 5.459163,-0.12127 8.188351,-0.1823 2.65e-4,-0.0656 2.65e-4,-0.1314 0,-0.19749 -0.02506,-0.97203 -0.05037,-1.94428 -0.07596,-2.91682 -0.02,-0.0706 -0.04025,-0.14152 -0.06077,-0.21268 z" /><path
       style="display:inline;fill:#c458ee;fill-opacity:1;stroke:none;stroke-width:0.264583"
       d="m 117.99635,21.151987 c 1.22534,-0.0025 3.67628,-0.0076 5.06124,0.07334 1.38496,0.08094 1.70397,0.248042 1.96735,0.475855 0.26338,0.227814 0.47099,0.51645 0.56985,1.16466 0.0988,0.64821 0.0887,1.655909 0.071,2.797836 -0.0177,1.141926 -0.0431,2.418006 -0.13675,3.149863 -0.0937,0.731858 -0.25573,0.919223 -0.46087,1.083834 -0.20514,0.164611 -0.45326,0.306395 -1.98775,0.374731 -1.53448,0.06834 -4.35503,0.06327 -5.82106,0.03534 -1.46603,-0.02793 -1.57743,-0.07856 -1.75973,-0.202669 -0.18229,-0.124109 -0.43548,-0.321598 -0.56446,-0.582409 -0.12899,-0.260812 -0.13406,-0.584907 -0.13405,-0.858354 0,-0.273447 0.005,-0.496256 0.12915,-0.749335 0.12408,-0.253079 0.36714,-0.53665 0.76452,-0.678427 0.39738,-0.141777 0.94933,-0.141777 2.29888,-0.134178 1.34956,0.0076 3.49662,0.0228 4.60815,0.03292 1.11153,0.01013 1.18748,0.01519 1.21546,-0.635658 0.028,-0.65085 0.008,-1.95731 -0.0177,-2.602786 -0.0254,-0.645477 -0.0557,-0.630303 -0.67105,-0.622727 -0.61536,0.0076 -1.81548,0.0076 -3.22073,0.01771 -1.40526,0.01014 -3.01555,0.0304 -3.9245,0.05828 -0.90895,0.02787 -1.11656,0.06332 -1.57984,0.331714 -0.46328,0.268396 -1.18234,0.769715 -1.72413,1.346942 -0.54179,0.577227 -0.90639,1.230458 -1.12667,1.787429 -0.22029,0.55697 -0.29625,1.017784 -0.3064,1.625423 -0.0102,0.60764 0.0455,1.362153 0.16449,1.94702 0.11894,0.584867 0.30124,1.000095 0.62274,1.433095 0.3215,0.433001 0.7823,0.883682 1.32412,1.245817 0.54182,0.362135 1.16467,0.63558 1.67108,0.797676 0.50641,0.162097 0.89632,0.212734 2.55226,0.238074 1.65595,0.02534 4.57777,0.02534 6.23879,-0.0354 1.66102,-0.06074 2.06106,-0.182273 2.52448,-0.450678 0.46342,-0.268405 0.99005,-0.683635 1.41546,-1.114113 0.42541,-0.430478 0.74949,-0.876087 0.96725,-1.301528 0.21776,-0.425441 0.32916,-0.830541 0.38737,-2.35738 0.0582,-1.526839 0.0633,-4.175219 0.0253,-5.658974 -0.038,-1.483754 -0.11904,-1.802772 -0.28113,-2.185104 -0.1621,-0.382332 -0.40516,-0.827943 -0.79261,-1.273535 -0.38745,-0.445592 -0.91915,-0.891209 -1.4838,-1.238037 -0.56465,-0.346828 -1.16218,-0.594953 -2.82567,-0.688564 -1.66349,-0.09361 -4.39289,-0.03285 -5.75749,0.03034 -1.3646,0.06318 -1.3646,0.12898 -1.35194,0.648037 0.0127,0.519057 0.038,1.491306 0.0607,2.012855 0.0228,0.52155 0.043,0.592476 0.0532,0.628077 0.0102,0.0356 0.0101,0.03552 1.23547,0.03299 z"
       id="path1390-7"
       inkscape:path-effect="#path-effect1392-9"
       inkscape:original-d="m 116.77102,21.15452 c 2.45067,-0.005 4.90161,-0.0104 7.35281,-0.0152 0.31877,0.16685 0.63778,0.33395 0.95708,0.50133 0.20736,0.28838 0.41497,0.57702 0.62286,0.86593 -0.0104,1.00747 -0.0205,2.01517 -0.0304,3.02316 -0.0256,1.27586 -0.0509,2.55194 -0.076,3.82831 -0.16231,0.18711 -0.32436,0.37447 -0.48614,0.5621 -0.2484,0.14152 -0.49652,0.28331 -0.74439,0.42536 -2.82092,-0.005 -5.64147,-0.0104 -8.4618,-0.0152 -0.11168,-0.0509 -0.22308,-0.10154 -0.33422,-0.15191 -0.25347,-0.19776 -0.50666,-0.39525 -0.75959,-0.59248 -0.005,-0.32436 -0.0104,-0.64845 -0.0152,-0.97227 0.005,-0.22308 0.01,-0.44589 0.0152,-0.66843 0.24281,-0.28386 0.48587,-0.56743 0.7292,-0.85074 0.55172,-2.7e-4 1.10367,-2.7e-4 1.6559,0 2.14688,0.0149 4.29394,0.0301 6.4413,0.0456 0.0757,0.005 0.15166,0.01 0.22788,0.0152 -0.0205,-1.30678 -0.0408,-2.61324 -0.0608,-3.91947 -0.0307,0.0149 -0.061,0.0301 -0.0911,0.0456 -1.20044,-2.7e-4 -2.40056,-2.7e-4 -3.60044,0 -1.61063,0.02 -3.22092,0.0402 -4.83098,0.0608 -0.20789,0.0352 -0.41551,0.0706 -0.62286,0.10634 -0.71936,0.50108 -1.43842,1.0024 -2.15723,1.50399 -0.36487,0.65299 -0.72947,1.30622 -1.09381,1.95973 -0.0762,0.46056 -0.15218,0.92137 -0.22787,1.38245 0.0554,0.75427 0.11114,1.50878 0.16711,2.26357 0.18204,0.41498 0.36433,0.83021 0.5469,1.24572 0.46056,0.45043 0.92137,0.90111 1.38245,1.35207 0.62261,0.27319 1.24546,0.54663 1.86858,0.82035 0.38967,0.0504 0.77958,0.10101 1.16977,0.15192 2.92167,-2.7e-4 5.84349,-2.7e-4 8.76564,0 0.39979,-0.1218 0.79983,-0.24334 1.20015,-0.3646 0.52639,-0.41552 1.05302,-0.83075 1.57994,-1.24573 0.32383,-0.4459 0.64791,-0.89151 0.97227,-1.33687 0.11114,-0.40539 0.22254,-0.81049 0.33422,-1.21534 0.005,-2.64874 0.01,-5.29712 0.0152,-7.94528 -0.0813,-0.3193 -0.16231,-0.63832 -0.24307,-0.95708 -0.24334,-0.4459 -0.4864,-0.89151 -0.7292,-1.33687 -0.53199,-0.4459 -1.06369,-0.89152 -1.59514,-1.33688 -0.59782,-0.2484 -1.19535,-0.49652 -1.79262,-0.74439 -2.72977,0.0605 -5.45917,0.12127 -8.18836,0.1823 -2.6e-4,0.0656 -2.6e-4,0.1314 0,0.19749 0.0251,0.97203 0.0504,1.94428 0.076,2.91682 0.02,0.0706 0.0403,0.14152 0.0608,0.21268 z" /><path
       style="display:inline;fill:#c458ee;fill-opacity:1;stroke:none;stroke-width:0.264583"
       d="m 165.89974,30.687793 c -1.22534,0.0025 -3.67627,0.0076 -5.06123,-0.07334 -1.38496,-0.08094 -1.70398,-0.248046 -1.96735,-0.475857 -0.26338,-0.227812 -0.47099,-0.516453 -0.56985,-1.16466 -0.0988,-0.648208 -0.0887,-1.655907 -0.071,-2.797834 0.0177,-1.141926 0.0431,-2.418006 0.13674,-3.149866 0.0937,-0.73186 0.25573,-0.919219 0.46087,-1.083833 0.20514,-0.164613 0.45327,-0.306401 1.98776,-0.374738 1.53448,-0.06834 4.35502,-0.06327 5.82105,-0.03534 1.46603,0.02792 1.57744,0.07857 1.75973,0.202674 0.18229,0.124109 0.43549,0.321603 0.56447,0.582414 0.12899,0.260812 0.13406,0.584897 0.13405,0.858349 0,0.273452 -0.005,0.496261 -0.12915,0.749339 -0.12408,0.253078 -0.36714,0.536647 -0.76452,0.678426 -0.39738,0.141779 -0.94934,0.141779 -2.29889,0.13418 -1.34955,-0.0076 -3.49661,-0.0228 -4.60814,-0.03293 -1.11154,-0.01012 -1.18748,-0.01519 -1.21546,0.635658 -0.028,0.65085 -0.008,1.95731 0.0177,2.602786 0.0254,0.645477 0.0557,0.630303 0.67105,0.622727 0.61535,-0.0076 1.81548,-0.0076 3.22073,-0.01771 1.40525,-0.01013 3.01555,-0.0304 3.9245,-0.05828 0.90895,-0.02787 1.11655,-0.06332 1.57983,-0.331711 0.46328,-0.268394 1.18234,-0.769713 1.72414,-1.346943 0.54179,-0.57723 0.90638,-1.230463 1.12667,-1.787432 0.22029,-0.556968 0.29624,-1.017783 0.3064,-1.625428 0.0102,-0.607644 -0.0456,-1.362157 -0.16449,-1.947024 -0.11894,-0.584866 -0.30124,-1.000098 -0.62274,-1.433096 -0.3215,-0.432998 -0.78231,-0.883678 -1.32413,-1.24581 -0.54181,-0.362133 -1.16466,-0.63558 -1.67107,-0.797677 -0.50641,-0.162098 -0.89632,-0.212732 -2.55227,-0.23807 -1.65595,-0.02534 -4.57777,-0.02534 -6.23878,0.0354 -1.66102,0.06074 -2.06106,0.182272 -2.52448,0.450674 -0.46342,0.268403 -0.99006,0.683636 -1.41546,1.114111 -0.42541,0.430475 -0.7495,0.876097 -0.96725,1.301532 -0.21776,0.425434 -0.32916,0.830545 -0.38737,2.357383 -0.0582,1.526838 -0.0633,4.175218 -0.0253,5.658973 0.038,1.483754 0.11904,1.802772 0.28113,2.185102 0.16209,0.38233 0.40516,0.827945 0.79261,1.273537 0.38745,0.445592 0.91915,0.891209 1.4838,1.238035 0.56465,0.346826 1.16217,0.594951 2.82567,0.688564 1.66349,0.09361 4.39288,0.03285 5.75748,-0.03033 1.3646,-0.06318 1.3646,-0.128981 1.35194,-0.648038 -0.0127,-0.519057 -0.038,-1.491306 -0.0607,-2.012855 -0.0228,-0.52155 -0.043,-0.592476 -0.0532,-0.628077 -0.0102,-0.0356 -0.0101,-0.03552 -1.23547,-0.03299 z"
       id="path1390-1"
       inkscape:path-effect="#path-effect1392-3"
       inkscape:original-d="m 167.12508,30.68526 c -2.45068,0.005 -4.90161,0.0104 -7.35281,0.0152 -0.31877,-0.16685 -0.63779,-0.33395 -0.95708,-0.50133 -0.20736,-0.28838 -0.41498,-0.57702 -0.62286,-0.86593 0.0104,-1.00747 0.0205,-2.01517 0.0304,-3.02316 0.0256,-1.27586 0.0509,-2.55194 0.076,-3.82832 0.16231,-0.1871 0.32435,-0.37446 0.48613,-0.56209 0.2484,-0.14153 0.49653,-0.28332 0.7444,-0.42537 2.82092,0.005 5.64146,0.0104 8.4618,0.0152 0.11167,0.0509 0.22308,0.10154 0.33422,0.15192 0.25346,0.19776 0.50666,0.39525 0.75959,0.59248 0.005,0.32436 0.0104,0.64844 0.0152,0.97227 -0.005,0.22308 -0.01,0.44589 -0.0152,0.66843 -0.24281,0.28386 -0.48587,0.56743 -0.72921,0.85074 -0.55171,2.7e-4 -1.10367,2.7e-4 -1.6559,0 -2.14687,-0.0149 -4.29393,-0.0301 -6.4413,-0.0456 -0.0757,-0.005 -0.15165,-0.01 -0.22787,-0.0152 0.0205,1.30678 0.0408,2.61324 0.0608,3.91947 0.0307,-0.0149 0.061,-0.0301 0.0911,-0.0456 1.20043,2.7e-4 2.40056,2.7e-4 3.60044,0 1.61062,-0.02 3.22092,-0.0402 4.83098,-0.0608 0.20789,-0.0352 0.4155,-0.0706 0.62286,-0.10634 0.71935,-0.50108 1.43841,-1.0024 2.15723,-1.50399 0.36487,-0.65299 0.72947,-1.30622 1.0938,-1.95973 0.0762,-0.46056 0.15219,-0.92137 0.22788,-1.38245 -0.0554,-0.75428 -0.11114,-1.50879 -0.16711,-2.26357 -0.18204,-0.41499 -0.36434,-0.83022 -0.5469,-1.24573 -0.46056,-0.45043 -0.92137,-0.90111 -1.38245,-1.35206 -0.62261,-0.27319 -1.24546,-0.54664 -1.86859,-0.82036 -0.38966,-0.0504 -0.77957,-0.10101 -1.16976,-0.15191 -2.92168,2.6e-4 -5.8435,2.6e-4 -8.76564,0 -0.39979,0.1218 -0.79983,0.24333 -1.20015,0.3646 -0.52639,0.41551 -1.05303,0.83074 -1.57994,1.24572 -0.32383,0.4459 -0.64792,0.89152 -0.97227,1.33688 -0.11114,0.40538 -0.22255,0.81049 -0.33422,1.21534 -0.005,2.64874 -0.01,5.29712 -0.0152,7.94528 0.0813,0.3193 0.16231,0.63832 0.24307,0.95708 0.24333,0.4459 0.4864,0.89151 0.7292,1.33687 0.53199,0.4459 1.06369,0.89152 1.59514,1.33688 0.59781,0.2484 1.19534,0.49652 1.79262,0.74439 2.72977,-0.0605 5.45916,-0.12127 8.18835,-0.1823 2.7e-4,-0.0656 2.7e-4,-0.1314 0,-0.19749 -0.0251,-0.97203 -0.0504,-1.94428 -0.076,-2.91682 -0.02,-0.0706 -0.0403,-0.14152 -0.0608,-0.21268 z" /><path
       style="fill:#000000;stroke:none;stroke-width:0.264583"
       d="m 112.73795,44.66613 h 5.97036 v 8.81121 h -5.95516 z"
       id="path375" /><path
       style="fill:#000000;stroke:none;stroke-width:0.264583"
       d="m 137.89746,47.07767 0.4082,-0.35449 0.12891,0.15039 v 4.35059 l -0.16319,0.28265 -0.34977,-0.28532 z"
       id="path382"
       sodipodi:nodetypes="ccccccc" /><path
       style="fill:#000000;stroke:none;stroke-width:0.264583"
       d="m 135.91015,44.90775 h 0.73047 l 0.54793,0.94904 v 6.76385 l -0.77885,0.77885 h -0.49955 z"
       id="path480" /><path
       id="path484"
       style="display:inline;fill:#000000;stroke:#000000;stroke-width:0.264583"
       inkscape:label="path484"
       d="m 135.17986,44.82159 -15.94166,0.0217 v 8.5292 h 15.94166 z m -12.01012,2.96519 h 8.70128 v 2.77141 h -8.70128 z" /><path
       style="fill:#000000;stroke:none;stroke-width:0.264583"
       d="m 123.83594,48.47416 v 1.28906 h 7.41211 v -1.26758 z"
       id="path493" /><path
       style="fill:#000000;stroke:none;stroke-width:0.264583"
       d="m 68.427734,44.82181 -0.816406,0.81641 v 6.96094 l 0.816406,0.8164 z"
       id="path495" /><path
       id="rect627"
       style="stroke-width:0.266879"
       d="m 69.274325,44.69653 v 8.77932 h 42.962235 v -8.77932 z m 37.755315,1.46217 a 2.9795732,3.0315031 0 0 1 2.97967,3.0316 2.9795732,3.0315031 0 0 1 -2.97967,3.03159 2.9795732,3.0315031 0 0 1 -2.97966,-3.03159 2.9795732,3.0315031 0 0 1 2.97966,-3.0316 z" /><path
       id="path633"
       style="stroke-width:0.327904"
       d="m 109.4613,49.22028 a 2.4139608,2.424703 0 0 1 -2.41396,2.42471 2.4139608,2.424703 0 0 1 -2.41396,-2.42471 2.4139608,2.424703 0 0 1 2.41396,-2.4247 2.4139608,2.424703 0 0 1 2.41396,2.4247 z" /><path
       style="fill:#c458ee;fill-opacity:1;stroke:none;stroke-width:0.264583"
       d="m 79.893397,31.04686 c 0,0.64578 0,1.93708 -0.07075,2.562386 -0.07074,0.625306 -0.212527,0.584795 -2.230557,0.559428 -2.01803,-0.02537 -5.912101,-0.0355 -8.021208,-0.08863 -2.109106,-0.05313 -2.433177,-0.149337 -3.068728,-0.625277 -0.63555,-0.475939 -1.582481,-1.331723 -2.126959,-2.091289 -0.544478,-0.759566 -0.686265,-1.422926 -0.749596,-2.975063 -0.06333,-1.552137 -0.04814,-3.992897 0.01261,-5.410838 0.06075,-1.417941 0.167086,-1.812922 0.41523,-2.27128 0.248144,-0.458359 0.638057,-0.979929 1.152103,-1.435729 0.514047,-0.4558 1.152092,-0.845715 1.701588,-1.088781 0.549495,-0.243065 1.010312,-0.339282 3.152418,-0.397504 2.142106,-0.05822 5.965288,-0.07849 7.881871,-0.053 1.916584,0.02548 1.926705,0.09634 1.924149,0.762241 -0.0026,0.665897 -0.01775,1.926787 -0.08091,2.552059 -0.06316,0.625273 -0.174553,0.615141 -2.083698,0.612594 -1.909145,-0.0025 -5.615857,0.0025 -7.560454,0.03288 -1.944597,0.03036 -2.126886,0.08606 -2.278916,0.248196 -0.15203,0.162135 -0.273561,0.430517 -0.336835,0.780007 -0.06328,0.34949 -0.06834,0.77991 -0.06074,1.916783 0.0076,1.136873 0.02786,2.980103 0.04561,3.94227 0.01775,0.962168 0.03294,1.04318 0.182457,1.159581 0.149517,0.116402 0.433092,0.268319 0.663498,0.382239 0.230406,0.113921 0.407649,0.18988 2.283838,0.230324 1.87619,0.04044 5.451242,0.04551 7.276782,0.04804 1.82554,0.0025 1.901503,0.0025 1.939349,0.0025 0.03785,0 0.03785,5e-5 0.03785,0.64583 z"
       id="path1400"
       inkscape:path-effect="#path-effect1402"
       inkscape:original-d="m 79.893397,30.40108 c 2.65e-4,1.29156 2.65e-4,2.58286 0,3.8739 -0.141528,-0.0403 -0.283313,-0.0808 -0.425368,-0.12154 -3.893965,-0.01 -7.788037,-0.02 -11.682455,-0.0304 -0.323831,-0.096 -0.647914,-0.19217 -0.972269,-0.28864 -0.946708,-0.85556 -1.893642,-1.71134 -2.840858,-2.56741 -0.141528,-0.66312 -0.283316,-1.32648 -0.425368,-1.99012 0.01545,-2.44059 0.03065,-4.88135 0.04558,-7.32242 0.106608,-0.39473 0.21295,-0.78971 0.319026,-1.18496 0.390195,-0.52133 0.780108,-1.0429 1.169766,-1.56475 0.638328,-0.38966 1.276371,-0.77958 1.914159,-1.16976 0.46109,-0.0959 0.921896,-0.19217 1.382448,-0.28865 3.823597,-0.02 7.646779,-0.0403 11.46977,-0.0608 0.0104,0.0712 0.02053,0.14206 0.03038,0.21269 -0.01492,1.2612 -0.03012,2.52209 -0.04558,3.78274 -0.111143,-0.01 -0.222546,-0.02 -0.334219,-0.0304 -3.706595,0.005 -7.413307,0.0104 -11.120358,0.0152 -0.182038,0.056 -0.364336,0.11167 -0.546901,0.16711 -0.121272,0.26866 -0.242806,0.53704 -0.364604,0.80517 -0.0048,0.43071 -0.0099,0.86113 -0.01519,1.2913 0.02053,1.84357 0.04077,3.6868 0.06077,5.5298 0.01545,0.0813 0.03065,0.16231 0.04557,0.24306 0.28385,0.15219 0.567423,0.30411 0.850739,0.45576 0.177503,0.0762 0.354737,0.15218 0.531709,0.22787 3.575463,0.005 7.150515,0.0104 10.725375,0.0152 0.07622,2.7e-4 0.152183,2.7e-4 0.227875,0 z" /><path
       id="rect1460"
       style="display:inline;fill:#c458ee;stroke-width:0.264583;fill-opacity:1"
       d="m 83.371391,10.54712 h 4.115951 v 3.695 h -4.115951 z" /><path
       id="rect1466"
       style="fill:#c458ee;stroke-width:0.264583;fill-opacity:1"
       d="m 83.34375,17.67337 h 4.067969 V 34.17676 H 83.34375 Z" /><path
       style="fill:#c458ee;fill-opacity:1;stroke:none;stroke-width:0.264583"
       d="m 91.978587,17.72298 c 0.647729,0 1.942923,0 2.587638,0.01026 0.644715,0.01026 0.639277,0.03055 0.636586,2.116971 -0.0027,2.086419 -0.0027,6.238749 0.0077,8.35149 0.01042,2.11274 0.03119,2.185777 0.277267,2.175264 0.246083,-0.01051 0.717371,-0.104219 1.400159,-0.346075 0.682788,-0.241856 1.577115,-0.631831 2.532736,-1.329793 0.955624,-0.697962 1.972584,-1.703905 2.781484,-2.603753 0.8089,-0.899848 1.40971,-1.693579 2.07944,-2.78773 0.66972,-1.094152 1.40834,-2.488699 1.87412,-3.472595 0.46577,-0.983895 0.65869,-1.557146 0.77604,-1.842514 0.11735,-0.285368 0.15877,-0.282701 0.81673,-0.281378 0.65796,0.0013 1.93248,0.0013 2.56861,0.02677 0.63613,0.02545 0.63413,0.07615 0.61947,0.227172 -0.0147,0.151023 -0.042,0.402423 -0.1784,0.833071 -0.13644,0.430648 -0.38199,1.040627 -0.74253,1.838675 -0.36054,0.798048 -0.83604,1.784141 -1.45773,2.901796 -0.62168,1.117655 -1.38951,2.366844 -2.25674,3.541003 -0.86723,1.174159 -1.83383,2.273284 -3.02552,3.277889 -1.19169,1.004605 -2.60847,1.914694 -3.835221,2.514936 -1.226753,0.600241 -2.263514,0.890612 -3.396733,1.035825 -1.133219,0.145213 -2.362913,0.145213 -3.024528,0.112189 -0.661615,-0.03302 -0.755153,-0.09928 -0.942286,-0.323357 -0.187133,-0.224078 -0.467762,-0.606046 -0.608188,-3.267253 -0.140427,-2.661206 -0.140427,-7.601426 -0.140029,-10.099463 3.98e-4,-2.498037 0.0012,-2.553857 0.0016,-2.58188 4.02e-4,-0.02802 5.63e-4,-0.02752 0.648292,-0.02752 z"
       id="path1469"
       inkscape:path-effect="#path-effect1471"
       inkscape:original-d="m 91.330858,17.72298 c 1.295458,2.7e-4 2.590652,2.7e-4 3.885581,0 -0.0052,0.0206 -0.01061,0.0409 -0.01632,0.0609 2.65e-4,4.15275 2.65e-4,8.30508 0,12.45721 0.02103,0.0733 0.04178,0.14634 0.06228,0.21911 0.471564,-0.0934 0.942843,-0.18715 1.413867,-0.28112 0.89463,-0.38973 1.788959,-0.7797 2.683042,-1.16995 1.017282,-1.00573 2.034252,-2.01167 3.050982,-3.01791 0.6011,-0.7935 1.20191,-1.58723 1.80247,-2.38125 0.73891,-1.39434 1.47752,-2.78889 2.21589,-4.18373 0.19319,-0.57301 0.38611,-1.14626 0.57877,-1.71979 0.0417,0.003 0.0831,0.006 0.12423,0.008 1.27483,2.7e-4 2.54935,2.7e-4 3.82362,0 -0.002,0.0509 -0.004,0.1016 -0.006,0.15201 -0.027,0.25167 -0.0543,0.50307 -0.0819,0.7542 -0.24529,0.61026 -0.49084,1.22024 -0.73666,1.82996 -0.47526,0.9864 -0.95077,1.97249 -1.42655,2.95835 -0.76759,1.24949 -1.53542,2.49868 -2.30353,3.74762 -0.96638,1.09943 -1.93298,2.19856 -2.89987,3.29744 -1.41657,0.91039 -2.83335,1.82048 -4.250425,2.73032 -1.03654,0.29065 -2.073302,0.58102 -3.110349,0.87113 -1.229479,2.7e-4 -2.459173,2.7e-4 -3.689157,0 -0.09328,-0.066 -0.186822,-0.13225 -0.280633,-0.19878 -0.280374,-0.38171 -0.561001,-0.76368 -0.841899,-1.14592 2.65e-4,-4.94014 2.65e-4,-9.88036 0,-14.82093 0.0011,-0.0555 0.0019,-0.11132 0.0024,-0.16737 z" /><path
       style="fill:#c458ee;fill-opacity:1;stroke:none;stroke-width:0.264583"
       d="m 138.32868,30.95941 c 0,0.65105 0,1.95287 0.0352,2.611482 0.0352,0.658613 0.10539,0.674215 1.55533,0.681981 1.44995,0.0078 4.27961,0.0078 5.98087,-0.149142 1.70126,-0.156909 2.27421,-0.470668 2.80231,-0.84483 0.5281,-0.374162 1.0114,-0.808746 1.39042,-1.307592 0.37902,-0.498846 0.6538,-1.062055 0.837,-1.590149 0.1832,-0.528094 0.27479,-1.021128 0.3206,-2.041334 0.0458,-1.020206 0.0458,-2.567556 0.002,-3.735876 -0.0438,-1.168321 -0.13153,-1.957594 -0.26012,-2.598755 -0.12858,-0.64116 -0.29812,-1.134203 -0.52607,-1.53959 -0.22795,-0.405387 -0.51442,-0.723037 -0.88176,-1.04755 -0.36733,-0.324514 -0.81556,-0.65581 -1.27061,-0.920896 -0.45505,-0.265085 -0.91692,-0.463863 -1.24337,-0.571109 -0.32645,-0.107247 -0.51743,-0.122847 -2.09992,-0.130658 -1.5825,-0.0078 -4.55637,-0.0078 -6.09794,0.0039 -1.54157,0.01168 -1.65068,0.03507 -1.8612,0.109133 -0.21052,0.07406 -0.52233,0.198779 -0.95402,0.39659 -0.43169,0.197811 -0.9832,0.468697 -1.40518,0.753257 -0.42197,0.284561 -0.7143,0.582729 -0.99885,0.976442 -0.28456,0.393713 -0.56129,0.882862 -0.74448,1.304843 -0.1832,0.42198 -0.27284,0.776654 -0.31764,3.826685 -0.0448,3.05003 -0.0448,8.7951 -0.0272,11.669518 0.0177,2.874417 0.0528,2.878321 0.71636,2.880256 0.6636,0.0019 1.95566,0.0019 2.60256,-0.02036 0.6469,-0.0223 0.6489,-0.0671 0.6499,-2.846195 0.001,-2.779095 0.001,-8.292255 0.0127,-11.099584 0.0117,-2.807329 0.0351,-2.908669 0.0896,-3.046111 0.0546,-0.137442 0.14032,-0.310887 0.25535,-0.458092 0.11502,-0.147206 0.25923,-0.268032 0.36833,-0.368366 0.10911,-0.100333 0.18319,-0.180263 1.6216,-0.220223 1.43841,-0.03996 4.24079,-0.03996 5.68783,-0.02822 1.44705,0.01174 1.53861,0.03513 1.67115,0.07901 0.13253,0.04388 0.30597,0.10819 0.44529,0.191086 0.13931,0.0829 0.24455,0.184237 0.32437,0.31873 0.0798,0.134492 0.13439,0.302101 0.16163,1.4714 0.0272,1.169299 0.0272,3.340269 0.0272,4.444289 0,1.10402 0,1.14102 -0.0176,1.205294 -0.0176,0.06427 -0.0526,0.155845 -0.10916,0.264947 -0.0565,0.109103 -0.13446,0.235772 -0.23674,0.349728 -0.10228,0.113956 -0.22895,0.215298 -0.4296,0.299086 -0.20065,0.08379 -0.47545,0.15005 -0.90318,0.182203 -0.42774,0.03215 -1.00848,0.03015 -1.95173,0.02815 -0.94325,-0.002 -2.24895,-0.004 -3.12495,-0.0128 -0.87601,-0.0088 -1.32228,-0.02439 -1.58634,-0.04871 -0.26405,-0.02431 -0.34588,-0.05744 -0.4005,-0.07118 -0.0546,-0.01374 -0.0819,-0.0079 -0.0957,-0.005 -0.0138,0.0029 -0.0139,0.0032 -0.0139,0.65429 z"
       id="path1515"
       inkscape:path-effect="#path-effect1517"
       inkscape:original-d="m 138.32868,30.30836 c 2.7e-4,1.3021 2.7e-4,2.60392 0,3.90548 0.0704,0.0159 0.14059,0.0314 0.21048,0.0468 2.83003,2.7e-4 5.65969,2.7e-4 8.48915,0 0.57323,-0.3135 1.14618,-0.62726 1.71887,-0.94129 0.48359,-0.43433 0.96689,-0.86892 1.44994,-1.30377 0.27506,-0.56296 0.54984,-1.12617 0.82436,-1.68965 0.0919,-0.4928 0.18346,-0.98584 0.27478,-1.47917 2.7e-4,-1.54714 2.7e-4,-3.09449 0,-4.64213 -0.0874,-0.78903 -0.17513,-1.5783 -0.26309,-2.36785 -0.16928,-0.4928 -0.33883,-0.98584 -0.50864,-1.47917 -0.28623,-0.3174 -0.5727,-0.63505 -0.85944,-0.95298 -0.44798,-0.33104 -0.8962,-0.66234 -1.3447,-0.99391 -0.46162,-0.19852 -0.92349,-0.3973 -1.38563,-0.59634 -0.19073,-0.0153 -0.38171,-0.0309 -0.57296,-0.0468 -2.97372,2.6e-4 -5.94759,2.6e-4 -8.92179,0 -0.10887,0.0237 -0.218,0.047 -0.3274,0.0702 -0.31156,0.12499 -0.62337,0.24971 -0.93545,0.37417 -0.55127,0.27116 -1.10278,0.54205 -1.65456,0.81267 -0.29207,0.29844 -0.58439,0.59661 -0.87698,0.89452 -0.27648,0.48943 -0.55321,0.97858 -0.83021,1.46748 -0.0894,0.35496 -0.17902,0.70964 -0.26894,1.06406 2.7e-4,5.74556 2.7e-4,11.49063 0,17.23554 0.0353,0.004 0.0704,0.008 0.10524,0.0117 1.29237,2.6e-4 2.58443,2.6e-4 3.87624,0 0.002,-0.0446 0.004,-0.0894 0.006,-0.13447 2.7e-4,-5.51312 2.7e-4,-11.02628 0,-16.53981 0.0236,-0.10107 0.047,-0.20241 0.0702,-0.30402 0.086,-0.17318 0.17176,-0.34662 0.25725,-0.52034 0.14448,-0.12056 0.28869,-0.24139 0.43264,-0.36248 0.0743,-0.0796 0.14837,-0.15954 0.22217,-0.23971 2.80275,2.7e-4 5.60513,2.7e-4 8.40729,0 0.0919,0.0236 0.18346,0.047 0.27479,0.0702 0.17371,0.0646 0.34716,0.12889 0.52034,0.19294 0.1055,0.1016 0.21074,0.20294 0.31571,0.30402 0.0548,0.16786 0.1094,0.33546 0.16371,0.5028 2.6e-4,2.17131 2.6e-4,4.34228 0,6.51302 2.6e-4,0.0373 2.6e-4,0.0743 0,0.11108 -0.0348,0.0919 -0.0699,0.18346 -0.10524,0.27479 -0.0777,0.12694 -0.15565,0.25361 -0.23386,0.38002 -0.12641,0.10161 -0.25309,0.20295 -0.38003,0.30402 -0.27452,0.0665 -0.54931,0.13279 -0.82436,0.19878 -0.5805,-0.002 -1.16124,-0.004 -1.74226,-0.006 -1.30548,-0.002 -2.61118,-0.004 -3.91717,-0.006 -0.44603,-0.0153 -0.8923,-0.0309 -1.33885,-0.0468 -0.0816,-0.0329 -0.16344,-0.066 -0.24556,-0.0994 -0.027,0.006 -0.0543,0.012 -0.0819,0.0175 z" /><path
       style="fill:#c458ee;fill-opacity:1;stroke:none;stroke-width:0.264583"
       d="m 176.10318,34.0326 c 0.63741,0 1.91195,0 2.54619,-0.01547 0.63425,-0.01547 0.62842,-0.04659 0.62548,-1.936025 -0.003,-1.889435 -0.003,-5.636975 0.0132,-7.540153 0.0162,-1.903177 0.0485,-1.961653 0.10666,-2.048471 0.0582,-0.08682 0.14228,-0.201901 0.23357,-0.323516 0.0913,-0.121615 0.18983,-0.249773 0.3122,-0.349725 0.12238,-0.09995 0.26844,-0.171606 0.43388,-0.210162 0.16543,-0.03855 0.3501,-0.04406 1.94728,-0.0468 1.59718,-0.0027 4.60675,-0.0027 6.11693,-0.02469 1.51018,-0.02194 1.52121,-0.06603 1.52676,-0.697026 0.006,-0.630994 0.006,-1.848884 -0.009,-2.459902 -0.0145,-0.611019 -0.0437,-0.614925 -1.67579,-0.616888 -1.63212,-0.002 -4.86713,-0.002 -6.61332,0.0214 -1.74619,0.02337 -2.00343,0.07014 -2.35621,0.183168 -0.35279,0.113027 -0.80102,0.292318 -1.24734,0.537882 -0.44633,0.245563 -0.89066,0.557372 -1.29217,0.962779 -0.40151,0.405407 -0.76009,0.904299 -0.97837,1.31753 -0.21827,0.413231 -0.29622,0.740628 -0.32543,2.917561 -0.0292,2.176933 -0.01,6.203153 -0.002,8.232876 0.008,2.029724 0.004,2.062836 0.002,2.079276 -0.002,0.01644 -0.002,0.01635 0.63535,0.01635 z"
       id="path1519"
       inkscape:path-effect="#path-effect1521"
       inkscape:original-d="m 175.46578,34.0326 c 1.27481,2.6e-4 2.54935,2.6e-4 3.82363,0 -0.006,-0.0309 -0.0114,-0.0621 -0.0175,-0.0935 2.6e-4,-3.74743 2.6e-4,-7.49497 0,-11.24286 0.0326,-0.0583 0.0649,-0.11678 0.097,-0.17557 0.0843,-0.1148 0.16839,-0.22987 0.25218,-0.3452 0.0988,-0.12789 0.19733,-0.25605 0.29559,-0.38447 0.14634,-0.0714 0.29241,-0.14305 0.43822,-0.21497 0.18492,-0.005 0.36958,-0.0108 0.55397,-0.0165 3.00996,2.6e-4 6.01953,2.6e-4 9.02891,0 0.0113,-0.0438 0.0223,-0.0879 0.0331,-0.13229 2.6e-4,-1.21767 2.6e-4,-2.43556 0,-3.65373 -0.0289,-0.004 -0.0581,-0.008 -0.0875,-0.0117 -3.23487,2.6e-4 -6.46988,2.6e-4 -9.70522,0 -0.25699,0.047 -0.51423,0.0938 -0.77174,0.14032 -0.44798,0.17956 -0.89621,0.35885 -1.3447,0.53788 -0.44408,0.31208 -0.88841,0.62389 -1.33301,0.93544 -0.35833,0.49918 -0.71691,0.99807 -1.07576,1.49671 -0.0777,0.32768 -0.15564,0.65508 -0.23386,0.98221 0.0198,4.02666 0.0392,8.05288 0.0585,12.07892 -0.004,0.0334 -0.008,0.0665 -0.0117,0.0994 z" /></g></svg>
